<svg xmlns="http://www.w3.org/2000/svg" width="20.5" height="20.5" viewBox="0 0 20.5 20.5">
  <path id="language_24dp" d="M90.25-859.5a9.918,9.918,0,0,1-3.972-.807,10.4,10.4,0,0,1-3.267-2.2,10.4,10.4,0,0,1-2.2-3.267A9.918,9.918,0,0,1,80-869.75a9.89,9.89,0,0,1,.807-3.985,10.438,10.438,0,0,1,2.2-3.254,10.4,10.4,0,0,1,3.267-2.2A9.918,9.918,0,0,1,90.25-880a9.89,9.89,0,0,1,3.985.807,10.438,10.438,0,0,1,3.254,2.2,10.438,10.438,0,0,1,2.2,3.254,9.89,9.89,0,0,1,.807,3.985,9.918,9.918,0,0,1-.807,3.972,10.4,10.4,0,0,1-2.2,3.267,10.437,10.437,0,0,1-3.254,2.2A9.891,9.891,0,0,1,90.25-859.5Zm0-2.1a13.006,13.006,0,0,0,1.153-1.922,12.128,12.128,0,0,0,.794-2.127H88.3a12.129,12.129,0,0,0,.794,2.127A13.006,13.006,0,0,0,90.25-861.6Zm-2.665-.41a14.2,14.2,0,0,1-.807-1.755,15.054,15.054,0,0,1-.577-1.883H83.177a8.507,8.507,0,0,0,1.858,2.229A7.373,7.373,0,0,0,87.585-862.011Zm5.33,0a7.373,7.373,0,0,0,2.55-1.409,8.507,8.507,0,0,0,1.858-2.229H94.3a15.058,15.058,0,0,1-.577,1.883A14.206,14.206,0,0,1,92.915-862.011ZM82.306-867.7h3.485q-.077-.513-.115-1.012t-.038-1.038q0-.538.038-1.038t.115-1.012H82.306a8.772,8.772,0,0,0-.192,1.012,8.158,8.158,0,0,0-.064,1.038,8.16,8.16,0,0,0,.064,1.038A8.777,8.777,0,0,0,82.306-867.7Zm5.535,0h4.817q.077-.513.115-1.012t.038-1.038q0-.538-.038-1.038t-.115-1.012H87.841q-.077.512-.115,1.012t-.038,1.038q0,.538.038,1.038T87.841-867.7Zm6.867,0h3.485a8.772,8.772,0,0,0,.192-1.012,8.162,8.162,0,0,0,.064-1.038,8.16,8.16,0,0,0-.064-1.038,8.767,8.767,0,0,0-.192-1.012H94.709q.077.512.115,1.012t.038,1.038q0,.538-.038,1.038T94.709-867.7Zm-.41-6.15h3.024a8.5,8.5,0,0,0-1.858-2.229,7.376,7.376,0,0,0-2.55-1.409,14.214,14.214,0,0,1,.807,1.755A15.059,15.059,0,0,1,94.3-873.85Zm-6,0h3.9a12.135,12.135,0,0,0-.794-2.127A13.018,13.018,0,0,0,90.25-877.9a13.018,13.018,0,0,0-1.153,1.922A12.136,12.136,0,0,0,88.3-873.85Zm-5.125,0H86.2a15.055,15.055,0,0,1,.577-1.883,14.211,14.211,0,0,1,.807-1.755,7.376,7.376,0,0,0-2.55,1.409A8.5,8.5,0,0,0,83.177-873.85Z" transform="translate(-80 880)" fill="#1f1f1f"/>
</svg>
